<?xml version="1.0" encoding="UTF-8"?>
<svg xmlns="http://www.w3.org/2000/svg" version="1.1" viewBox="0 0 647.4 400">
  <defs>
    <style>
      .cls-1 {
        fill: #dc267f;
      }

      .cls-1, .cls-2, .cls-3, .cls-4, .cls-5, .cls-6, .cls-7, .cls-8, .cls-9, .cls-10, .cls-11 {
        isolation: isolate;
      }

      .cls-1, .cls-4, .cls-5, .cls-6, .cls-7, .cls-8, .cls-12, .cls-10 {
        opacity: .5;
      }

      .cls-1, .cls-4, .cls-5, .cls-12, .cls-13 {
        stroke-width: 0px;
      }

      .cls-2 {
        font-family: Helvetica, Helvetica;
      }

      .cls-2, .cls-14, .cls-9 {
        fill: #000;
        font-size: 10px;
      }

      .cls-3, .cls-6 {
        stroke: #648fff;
      }

      .cls-3, .cls-6, .cls-7, .cls-15, .cls-16, .cls-17, .cls-8, .cls-18, .cls-10 {
        fill: none;
      }

      .cls-3, .cls-6, .cls-7, .cls-8, .cls-10 {
        stroke-width: 1.5px;
      }

      .cls-4, .cls-11 {
        fill: #648fff;
      }

      .cls-5 {
        fill: #fbb159;
      }

      .cls-7 {
        stroke: #fbb159;
      }

      .cls-14 {
        font-family: Roboto-Light, Roboto;
        font-weight: 300;
      }

      .cls-15 {
        stroke-width: 4px;
      }

      .cls-15, .cls-16, .cls-18, .cls-11 {
        stroke-miterlimit: 10;
      }

      .cls-15, .cls-11 {
        stroke: #231f20;
      }

      .cls-16 {
        opacity: .8;
        stroke: #fcee1e;
        stroke-width: 8px;
      }

      .cls-17, .cls-18 {
        stroke: #000;
      }

      .cls-8 {
        stroke: #dc267f;
      }

      .cls-9 {
        font-family: Roboto-Regular, Roboto;
      }

      .cls-12 {
        fill: #feee1c;
      }

      .cls-10 {
        stroke: #ffb000;
      }

      .cls-19 {
        display: none;
      }

      .cls-13 {
        fill: #231f20;
      }
    </style>
  </defs>
  <g id="positive_corr_highlght" class="cls-19">
    <polygon class="cls-12" points="400.4 328.7 578.1 315 578.1 390.9 401.3 390.9 400.4 328.7"/>
    <polygon class="cls-12" points="400.4 166.7 578.1 160 578.1 262.9 401.3 271.9 400.4 166.7"/>
    <polygon class="cls-12" points="400.4 30.7 578.1 30 578.1 142.9 401.3 162.9 400.4 30.7"/>
  </g>
  <g id="negative_corr_highlight" class="cls-19">
    <polygon class="cls-12" points="44.9 29.6 154.9 104.3 221 31.2 222.8 390.8 100.5 343.5 45.5 390.2 44.9 29.6"/>
  </g>
  <g id="red_lines">
    <path class="cls-8" d="M44.9,190l178,5,178-110.1,178-30.9"/>
    <path class="cls-8" d="M44.9,240l178,45,178-145.2,178-19.8"/>
    <path class="cls-8" d="M44.9,110l178,130,178-149,178-12"/>
    <path class="cls-8" d="M44.9,190l178,65,178-145.7,178,5.7"/>
    <path class="cls-8" d="M44.9,170l178,70,178-142.9,178-22.1"/>
    <path class="cls-8" d="M44.9,60l178,117L400.9,48.3l178,1.7"/>
    <path class="cls-8" d="M44.9,254l178,65,178-158.6,178-20.4"/>
    <path class="cls-8" d="M44.9,90l178,97,178-120.4,178,5.4"/>
    <path class="cls-8" d="M44.9,150l178,165,178-217.9,178,4.9"/>
    <path class="cls-8" d="M44.9,102l178,118,178-141.2,178-24.8"/>
    <path class="cls-8" d="M44.9,170l178,40,178-70.2,178-34.8"/>
    <path class="cls-8" d="M44.9,180l178,105,178-157.4,178-7.6"/>
    <path class="cls-8" d="M44.9,140l178,100,178-124.6,178-25.4"/>
    <path class="cls-8" d="M44.9,250l178,65,178-169.1,178-40.9"/>
    <path class="cls-8" d="M44.9,240l178,30,178-130.2,178-52.8"/>
    <path class="cls-8" d="M44.9,180l178,30,178-82.4,178-67.6"/>
    <path class="cls-8" d="M44.9,170l178,70,178-124.6,178-.4"/>
    <path class="cls-8" d="M44.9,50l178,113,178-120.8,178-6.2"/>
    <path class="cls-8" d="M44.9,41l178,111,178-120h178"/>
    <path class="cls-8" d="M44.9,220l178,100,178-174.1,178-48.9"/>
    <path class="cls-8" d="M44.9,130l178,80,178-106.8,178-43.2"/>
    <path class="cls-8" d="M44.9,260l178,10,178-118,178-47"/>
    <path class="cls-8" d="M44.9,71l178,105L400.9,42.2l178-.2"/>
    <path class="cls-8" d="M44.9,190l178,95,178-133,178-37"/>
    <path class="cls-8" d="M44.9,150l178,45,178-91.8,178-22.2"/>
    <path class="cls-8" d="M44.9,55l178,150,178-120.1,178-41.9"/>
    <path class="cls-8" d="M44.9,200l178,70,178-111.9,178-37.1"/>
    <path class="cls-8" d="M44.9,210l178,30,178-88,178-37"/>
    <path class="cls-8" d="M44.9,180l178,90,178-160.7,178-27.3"/>
    <path class="cls-8" d="M44.9,133l178,102,178-137.9,178-53.1"/>
    <path class="cls-8" d="M44.9,80l178,190,178-191.2,178-8.8"/>
    <path class="cls-8" d="M44.9,30l178,127,178-96.5,178-7.5"/>
    <path class="cls-8" d="M44.9,180l178,90,178-160.7,178-34.3"/>
    <path class="cls-8" d="M44.9,190l178,87,178-137.2,178-15.8"/>
    <path class="cls-8" d="M44.9,210l178,90,178-190.7,178-27.3"/>
    <path class="cls-8" d="M44.9,50l178,148,178-119.2,178-18.8"/>
    <path class="cls-8" d="M44.9,47l178,133,178-70.7,178-42.3"/>
    <path class="cls-8" d="M44.9,180l178,45,178-109.6,178,4.6"/>
    <path class="cls-8" d="M44.9,220l178,20,178-81.9,178-31.1"/>
    <path class="cls-8" d="M44.9,130l178,95,178-103.5,178-31.5"/>
    <path class="cls-8" d="M44.9,150l178,75,178-115.7,178-36.3"/>
    <path class="cls-8" d="M44.9,87l178,135,178-82.2,178-47.8"/>
    <path class="cls-8" d="M44.9,240l178,45,178-145.2,178-19.8"/>
    <path class="cls-8" d="M44.9,140l178,70,178-119,178-31"/>
    <path class="cls-8" d="M44.9,43l178,152,178-91.8,178-49.2"/>
    <path class="cls-8" d="M44.9,150l178,90,178-106.3,178-44.7"/>
    <path class="cls-8" d="M44.9,190l178,125,178-169.1,178-25.9"/>
    <path class="cls-8" d="M44.9,128l178,112,178-106.3,178-28.7"/>
    <path class="cls-8" d="M44.9,75l178,110,178-63.5,178-36.5"/>
    <path class="cls-8" d="M44.9,230l178,10,178-100.2,178-24.8"/>
  </g>
  <g id="orange_lines">
    <path class="cls-7" d="M44.9,120l178,90,178-29.8,178,14.8"/>
    <path class="cls-7" d="M44.9,180l178,30,178-27.6,178-2.4"/>
    <path class="cls-7" d="M44.9,270l178,75,178-132.1,178-2.9"/>
    <path class="cls-7" d="M44.9,170l178,100,178-93.7,178,3.7"/>
    <path class="cls-7" d="M44.9,250l178,20,178-87.6,178,27.6"/>
    <path class="cls-7" d="M44.9,97l178,98,178-14.8,178-9.2"/>
    <path class="cls-7" d="M44.9,330l178,32,178-106.3,178-.7"/>
    <path class="cls-7" d="M44.9,160l178,95,178-78.7,178,22.7"/>
    <path class="cls-7" d="M44.9,300l178,41,178-121.9,178-24.1"/>
    <path class="cls-7" d="M44.9,320l178,70,178-122.5,178-12.5"/>
    <path class="cls-7" d="M44.9,175l178,65,178-39.3,178-9.7"/>
    <path class="cls-7" d="M44.9,220l178,104,178-111.1,178,36.1"/>
    <path class="cls-7" d="M44.9,205l178,45,178-69.8,178,14.8"/>
    <path class="cls-7" d="M44.9,260l178,34,178-77.6,178-1.4"/>
    <path class="cls-7" d="M44.9,150l178,75,178-36.5,178,6.5"/>
    <path class="cls-7" d="M44.9,260l178-20,178-57.6,178-2.4"/>
    <path class="cls-7" d="M44.9,231l178,54,178-78.2,178,39.2"/>
    <path class="cls-7" d="M44.9,200l178,138,178-155.6,178-2.4"/>
    <path class="cls-7" d="M44.9,260l178,55,178-95.9,178,20.9"/>
    <path class="cls-7" d="M44.9,210l178,60,178-60.1,178,3.1"/>
    <path class="cls-7" d="M44.9,190l178,125,178-142,178-7"/>
    <path class="cls-7" d="M44.9,210l178,60,178-89.8,178,7.8"/>
    <path class="cls-7" d="M44.9,180l178,68,178-53.4,178,15.4"/>
    <path class="cls-7" d="M44.9,160l178,80,178-51.5,178,6.5"/>
    <path class="cls-7" d="M44.9,140l178,130,178-95.9,178,9.9"/>
    <path class="cls-7" d="M44.9,150l178,90,178-67.1,178-3.9"/>
    <path class="cls-7" d="M44.9,220l178,35,178-72.6,178-2.4"/>
    <path class="cls-7" d="M44.9,250l178,50,178-56.5,178,11.5"/>
    <path class="cls-7" d="M44.9,270l178,60,178-104.8,178,14.8"/>
    <path class="cls-7" d="M44.9,270l178,60,178-98.7,178,19.7"/>
    <path class="cls-7" d="M44.9,214l178,71,178-65.9,178,5.9"/>
    <path class="cls-7" d="M44.9,220l178,65,178-112.2,178-10.8"/>
    <path class="cls-7" d="M44.9,280l178-40,178-57.6,178-2.4"/>
    <path class="cls-7" d="M44.9,106l178,188,178-122.6,178,3.6"/>
    <path class="cls-7" d="M44.9,150l178,75,178-44.8,178-4.2"/>
    <path class="cls-7" d="M44.9,190l178,155,178-156.5,178,16.5"/>
    <path class="cls-7" d="M44.9,260l178-20,178-33.2,178,3.2"/>
    <path class="cls-7" d="M44.9,270l178,45,178-102.1,178,7.1"/>
    <path class="cls-7" d="M44.9,255l178,45,178-111.5,178,14.5"/>
    <path class="cls-7" d="M44.9,210l178,30,178-63.7,178,18.7"/>
    <path class="cls-7" d="M44.9,240l178,60,178-87.1,178,12.1"/>
    <path class="cls-7" d="M44.9,320l178,51,178-115.3,178-.7"/>
    <path class="cls-7" d="M44.9,260l178,25,178-84.3,178,9.3"/>
    <path class="cls-7" d="M44.9,250l178-10,178-39.3,178,24.3"/>
    <path class="cls-7" d="M44.9,233l178,22,178-54.3,178,9.3"/>
    <path class="cls-7" d="M44.9,200l178,45,178-50.4,178,12.4"/>
    <path class="cls-7" d="M44.9,310l178,37,178-82,178-6"/>
    <path class="cls-7" d="M44.9,250l178,20,178-63.2,178,11.2"/>
    <path class="cls-10" d="M44.9,130l178,95,178-57,178,16"/>
    <path class="cls-10" d="M44.9,230l178-20,178-39.9,178-5.1"/>
  </g>
  <g id="blue_lines">
    <path class="cls-6" d="M44.9,310l178-145,178,200.6,178,9.4"/>
    <path class="cls-6" d="M44.9,330l178-90,178,125.6,178,9.4"/>
    <path class="cls-6" d="M44.9,350l178-140,178,161.7,178,3.3"/>
    <path class="cls-6" d="M44.9,360l178-135,178,134.5,178,15.5"/>
    <path class="cls-6" d="M44.9,320l178-170,178,215.6,178,9.4"/>
    <path class="cls-6" d="M44.9,280L222.9,105l178,238.3,178,1.7"/>
    <path class="cls-6" d="M44.9,360l178-180,178,185.6,178-5.6"/>
    <path class="cls-6" d="M44.9,320l178-140,178,179.5,178,15.5"/>
    <path class="cls-6" d="M44.9,380l178-125,178,110.6,178,9.4"/>
    <path class="cls-6" d="M44.9,330l178-105,178,134.5,178,30.5"/>
    <path class="cls-6" d="M44.9,280l178-145,178,224.5,178,15.5"/>
    <path class="cls-6" d="M44.9,340l178-160,178,173.4,178,21.6"/>
    <path class="cls-6" d="M44.9,340l178-100,178,125.6,178,24.4"/>
    <path class="cls-6" d="M44.9,390l178-150,178,143.9,178,6.1"/>
    <path class="cls-6" d="M44.9,240L222.9,90l178,287.8,178-2.8"/>
    <path class="cls-6" d="M44.9,250L222.9,30l178,329.5,178-14.5"/>
    <path class="cls-6" d="M44.9,280L222.9,105l178,266.7,178-26.7"/>
    <path class="cls-6" d="M44.9,310l178-145,178,200.6,178-5.6"/>
    <path class="cls-6" d="M44.9,250L222.9,120l178,227.3,178,2.7"/>
    <path class="cls-6" d="M44.9,310L222.9,120l178,239.5,178,.5"/>
    <path class="cls-6" d="M44.9,280l178-100,178,170.3,178-15.3"/>
    <path class="cls-6" d="M44.9,310l178-175,178,224.5,178-14.5"/>
    <path class="cls-6" d="M44.9,360l178-210,178,240,178-15"/>
    <path class="cls-6" d="M44.9,310l178-115,178,141.3,178-6.3"/>
    <path class="cls-6" d="M44.9,340l178-160,178,159.1,178-4.1"/>
    <path class="cls-6" d="M44.9,320l178-80,178,113.4,178,21.6"/>
    <path class="cls-6" d="M44.9,320l178-140,178,170.4,178-8.4"/>
    <path class="cls-6" d="M44.9,300l178-135,178,194.5,178,15.5"/>
    <path class="cls-6" d="M44.9,300l178-120,178,185.6,178,9.4"/>
    <path class="cls-6" d="M44.9,350l178-140,178,143.4,178,21.6"/>
    <path class="cls-6" d="M44.9,340l178-115,178,128.4,178,21.6"/>
    <path class="cls-6" d="M44.9,280l178-100,178,176.5,178-.5"/>
    <path class="cls-6" d="M44.9,300L222.9,75l178,284.5,178,30.5"/>
    <path class="cls-6" d="M44.9,270L222.9,60l178,305.6,178,9.4"/>
    <path class="cls-6" d="M44.9,330l178-105,178,134.5,178,15.5"/>
    <path class="cls-6" d="M44.9,320l178-110,178,167.8,178-2.8"/>
    <path class="cls-6" d="M44.9,270l178-105,178,206.7,178,3.3"/>
    <path class="cls-6" d="M44.9,330l178-180,178,215.6,178,24.4"/>
    <path class="cls-6" d="M44.9,380l178-140,178,131.7,178,3.3"/>
    <path class="cls-6" d="M44.9,310l178-130,178,181.5,178-23.5"/>
    <path class="cls-6" d="M44.9,320l178-155,178,206.7,178-11.7"/>
    <path class="cls-6" d="M44.9,380l178-170,178,161.7,178,3.3"/>
    <path class="cls-6" d="M44.9,320l178-155,178,167.4,178-13.4"/>
    <path class="cls-6" d="M44.9,310L222.9,120l178,214.1,178-8.1"/>
    <path class="cls-6" d="M44.9,340l178-100,178,125.6,178,.4"/>
    <path class="cls-6" d="M44.9,310L222.9,120l178,233.4,178-1.4"/>
    <path class="cls-6" d="M44.9,360l178-150,178,155.6,178,9.4"/>
    <path class="cls-6" d="M44.9,290l178-155,178,222.5,178,28.5"/>
    <path class="cls-6" d="M44.9,320l178-125,178,170.6,178,9.4"/>
  </g>
  <g id="single_line_highlight" class="cls-19">
    <path class="cls-16" d="M44.9,135l178,247,178-160.3,178,11.3"/>
  </g>
  <g id="single_blue_line">
    <path class="cls-3" d="M44.9,135l178,247,178-160.3,178,11.3"/>
  </g>
  <g id="species_labels">
    <text class="cls-14" transform="translate(584.4 87.1)"><tspan x="0" y="0">Iris virginica </tspan></text>
    <text class="cls-14" transform="translate(584.7 205.6)"><tspan x="0" y="0">Iris versicolor </tspan></text>
    <text class="cls-14" transform="translate(586.7 349.6)"><tspan x="0" y="0">Iris setosa </tspan></text>
    <rect class="cls-1" x="580.6" y="75.2" width="59.4" height="15.3" rx="4.7" ry="4.7"/>
    <rect class="cls-5" x="580.9" y="194.7" width="65.4" height="15.3" rx="4.7" ry="4.7"/>
    <rect class="cls-4" x="581.6" y="338.2" width="56.4" height="15.3" rx="4.7" ry="4.7"/>
  </g>
  <g id="vertical_lines">
    <line class="cls-18" x1="44.3" y1="29.8" x2="45.3" y2="390.9"/>
    <line class="cls-18" x1="222.3" y1="30.8" x2="223.3" y2="390.9"/>
    <line class="cls-18" x1="400.3" y1="30.8" x2="401.3" y2="390.9"/>
    <line class="cls-18" x1="578.3" y1="30.8" x2="579.3" y2="390.9"/>
  </g>
  <g id="axes_highlight" class="cls-19">
    <path class="cls-12" d="M38.9,390.5h6.5V30.5h-6.5"/>
    <path class="cls-12" d="M216.9,390.5h6.5V30.5h-6.5"/>
    <path class="cls-12" d="M394.9,390.5h6.5V30.5h-6.5"/>
    <path class="cls-12" d="M572.9,390.5h6.5V30.5h-6.5"/>
  </g>
  <g id="blue_dots" class="cls-19">
    <circle class="cls-11" cx="45.5" cy="137.6" r="4"/>
    <circle class="cls-11" cx="401.5" cy="221.6" r="4"/>
    <circle class="cls-11" cx="579.5" cy="233.6" r="4"/>
    <circle class="cls-11" cx="223.5" cy="380.6" r="4"/>
  </g>
  <g id="label_axes">
    <g>
      <line class="cls-17" x1="44.9" y1="370.5" x2="38.9" y2="370.5"/>
      <text class="cls-2" transform="translate(22 373.7)"><tspan x="0" y="0">4.5</tspan></text>
    </g>
    <g>
      <line class="cls-17" x1="44.9" y1="320.5" x2="38.9" y2="320.5"/>
      <text class="cls-2" transform="translate(22 323.7)"><tspan x="0" y="0">5.0</tspan></text>
    </g>
    <g>
      <line class="cls-17" x1="44.9" y1="270.5" x2="38.9" y2="270.5"/>
      <text class="cls-2" transform="translate(22 273.7)"><tspan x="0" y="0">5.5</tspan></text>
    </g>
    <g>
      <line class="cls-17" x1="44.9" y1="220.5" x2="38.9" y2="220.5"/>
      <text class="cls-2" transform="translate(22 223.7)"><tspan x="0" y="0">6.0</tspan></text>
    </g>
    <g>
      <line class="cls-17" x1="44.9" y1="170.5" x2="38.9" y2="170.5"/>
      <text class="cls-2" transform="translate(22 173.7)"><tspan x="0" y="0">6.5</tspan></text>
    </g>
    <g>
      <line class="cls-17" x1="44.9" y1="120.5" x2="38.9" y2="120.5"/>
      <text class="cls-2" transform="translate(22 123.7)"><tspan x="0" y="0">7.0</tspan></text>
    </g>
    <g>
      <line class="cls-17" x1="44.9" y1="70.5" x2="38.9" y2="70.5"/>
      <text class="cls-2" transform="translate(22 73.7)"><tspan x="0" y="0">7.5</tspan></text>
    </g>
    <text class="cls-9" transform="translate(11 18)"><tspan x="0" y="0">SEPAL LENGTH</tspan></text>
    <g>
      <line class="cls-17" x1="222.9" y1="390.5" x2="216.9" y2="390.5"/>
      <text class="cls-2" transform="translate(200 393.7)"><tspan x="0" y="0">2.0</tspan></text>
    </g>
    <g>
      <line class="cls-17" x1="222.9" y1="360.5" x2="216.9" y2="360.5"/>
      <text class="cls-2" transform="translate(200 363.7)"><tspan x="0" y="0">2.2</tspan></text>
    </g>
    <g>
      <line class="cls-17" x1="222.9" y1="330.5" x2="216.9" y2="330.5"/>
      <text class="cls-2" transform="translate(200 333.7)"><tspan x="0" y="0">2.4</tspan></text>
    </g>
    <g>
      <line class="cls-17" x1="222.9" y1="300.5" x2="216.9" y2="300.5"/>
      <text class="cls-2" transform="translate(200 303.7)"><tspan x="0" y="0">2.6</tspan></text>
    </g>
    <g>
      <line class="cls-17" x1="222.9" y1="270.5" x2="216.9" y2="270.5"/>
      <text class="cls-2" transform="translate(200 273.7)"><tspan x="0" y="0">2.8</tspan></text>
    </g>
    <g>
      <line class="cls-17" x1="222.9" y1="240.5" x2="216.9" y2="240.5"/>
      <text class="cls-2" transform="translate(200 243.7)"><tspan x="0" y="0">3.0</tspan></text>
    </g>
    <g>
      <line class="cls-17" x1="222.9" y1="210.5" x2="216.9" y2="210.5"/>
      <text class="cls-2" transform="translate(200 213.7)"><tspan x="0" y="0">3.2</tspan></text>
    </g>
    <g>
      <line class="cls-17" x1="222.9" y1="180.5" x2="216.9" y2="180.5"/>
      <text class="cls-2" transform="translate(200 183.7)"><tspan x="0" y="0">3.4</tspan></text>
    </g>
    <g>
      <line class="cls-17" x1="222.9" y1="150.5" x2="216.9" y2="150.5"/>
      <text class="cls-2" transform="translate(200 153.7)"><tspan x="0" y="0">3.6</tspan></text>
    </g>
    <g>
      <line class="cls-17" x1="222.9" y1="120.5" x2="216.9" y2="120.5"/>
      <text class="cls-2" transform="translate(200 123.7)"><tspan x="0" y="0">3.8</tspan></text>
    </g>
    <g>
      <line class="cls-17" x1="222.9" y1="90.5" x2="216.9" y2="90.5"/>
      <text class="cls-2" transform="translate(200 93.7)"><tspan x="0" y="0">4.0</tspan></text>
    </g>
    <g>
      <line class="cls-17" x1="222.9" y1="60.5" x2="216.9" y2="60.5"/>
      <text class="cls-2" transform="translate(200 63.7)"><tspan x="0" y="0">4.2</tspan></text>
    </g>
    <g>
      <line class="cls-17" x1="222.9" y1="30.5" x2="216.9" y2="30.5"/>
      <text class="cls-2" transform="translate(200 33.7)"><tspan x="0" y="0">4.4</tspan></text>
    </g>
    <text class="cls-9" transform="translate(190.6 18)"><tspan x="0" y="0">SEPAL WIDTH</tspan></text>
    <g>
      <line class="cls-17" x1="400.9" y1="390.5" x2="394.9" y2="390.5"/>
      <text class="cls-2" transform="translate(378 393.7)"><tspan x="0" y="0">1.0</tspan></text>
    </g>
    <g>
      <line class="cls-17" x1="400.9" y1="360" x2="394.9" y2="360"/>
      <text class="cls-2" transform="translate(378 363.2)"><tspan x="0" y="0">1.5</tspan></text>
    </g>
    <g>
      <line class="cls-17" x1="400.9" y1="329.5" x2="394.9" y2="329.5"/>
      <text class="cls-2" transform="translate(378 332.7)"><tspan x="0" y="0">2.0</tspan></text>
    </g>
    <g>
      <line class="cls-17" x1="400.9" y1="299" x2="394.9" y2="299"/>
      <text class="cls-2" transform="translate(378 302.2)"><tspan x="0" y="0">2.5</tspan></text>
    </g>
    <g>
      <line class="cls-17" x1="400.9" y1="268.5" x2="394.9" y2="268.5"/>
      <text class="cls-2" transform="translate(378 271.7)"><tspan x="0" y="0">3.0</tspan></text>
    </g>
    <g>
      <line class="cls-17" x1="400.9" y1="238" x2="394.9" y2="238"/>
      <text class="cls-2" transform="translate(378 241.2)"><tspan x="0" y="0">3.5</tspan></text>
    </g>
    <g>
      <line class="cls-17" x1="400.9" y1="207.4" x2="394.9" y2="207.4"/>
      <text class="cls-2" transform="translate(378 210.6)"><tspan x="0" y="0">4.0</tspan></text>
    </g>
    <g>
      <line class="cls-17" x1="400.9" y1="176.9" x2="394.9" y2="176.9"/>
      <text class="cls-2" transform="translate(378 180.1)"><tspan x="0" y="0">4.5</tspan></text>
    </g>
    <g>
      <line class="cls-17" x1="400.9" y1="146.4" x2="394.9" y2="146.4"/>
      <text class="cls-2" transform="translate(378 149.6)"><tspan x="0" y="0">5.0</tspan></text>
    </g>
    <g>
      <line class="cls-17" x1="400.9" y1="115.9" x2="394.9" y2="115.9"/>
      <text class="cls-2" transform="translate(378 119.1)"><tspan x="0" y="0">5.5</tspan></text>
    </g>
    <g>
      <line class="cls-17" x1="400.9" y1="85.4" x2="394.9" y2="85.4"/>
      <text class="cls-2" transform="translate(378 88.6)"><tspan x="0" y="0">6.0</tspan></text>
    </g>
    <g>
      <line class="cls-17" x1="400.9" y1="54.9" x2="394.9" y2="54.9"/>
      <text class="cls-2" transform="translate(378 58.1)"><tspan x="0" y="0">6.5</tspan></text>
    </g>
    <text class="cls-9" transform="translate(366.4 18)"><tspan x="0" y="0">PETAL LENGTH</tspan></text>
    <g>
      <line class="cls-17" x1="578.9" y1="375.5" x2="572.9" y2="375.5"/>
      <text class="cls-2" transform="translate(556 378.7)"><tspan x="0" y="0">0.2</tspan></text>
    </g>
    <g>
      <line class="cls-17" x1="578.9" y1="347.5" x2="572.9" y2="347.5"/>
      <text class="cls-2" transform="translate(556 350.7)"><tspan x="0" y="0">0.4</tspan></text>
    </g>
    <g>
      <line class="cls-17" x1="578.9" y1="317.5" x2="572.9" y2="317.5"/>
      <text class="cls-2" transform="translate(556 320.7)"><tspan x="0" y="0">0.6</tspan></text>
    </g>
    <g>
      <line class="cls-17" x1="578.9" y1="287.5" x2="572.9" y2="287.5"/>
      <text class="cls-2" transform="translate(556 290.7)"><tspan x="0" y="0">0.8</tspan></text>
    </g>
    <g>
      <line class="cls-17" x1="578.9" y1="257.5" x2="572.9" y2="257.5"/>
      <text class="cls-2" transform="translate(556 260.7)"><tspan x="0" y="0">1.0</tspan></text>
    </g>
    <g>
      <line class="cls-17" x1="578.9" y1="227.5" x2="572.9" y2="227.5"/>
      <text class="cls-2" transform="translate(556 230.7)"><tspan x="0" y="0">1.2</tspan></text>
    </g>
    <g>
      <line class="cls-17" x1="578.9" y1="197.5" x2="572.9" y2="197.5"/>
      <text class="cls-2" transform="translate(556 200.7)"><tspan x="0" y="0">1.4</tspan></text>
    </g>
    <g>
      <line class="cls-17" x1="578.9" y1="167.5" x2="572.9" y2="167.5"/>
      <text class="cls-2" transform="translate(556 170.7)"><tspan x="0" y="0">1.6</tspan></text>
    </g>
    <g>
      <line class="cls-17" x1="578.9" y1="140.5" x2="572.9" y2="140.5"/>
      <text class="cls-2" transform="translate(556 143.7)"><tspan x="0" y="0">1.8</tspan></text>
    </g>
    <g>
      <line class="cls-17" x1="578.9" y1="111.5" x2="572.9" y2="111.5"/>
      <text class="cls-2" transform="translate(556 114.7)"><tspan x="0" y="0">2.0</tspan></text>
    </g>
    <g>
      <line class="cls-17" x1="578.9" y1="81.5" x2="572.9" y2="81.5"/>
      <text class="cls-2" transform="translate(556 84.7)"><tspan x="0" y="0">2.2</tspan></text>
    </g>
    <g>
      <line class="cls-17" x1="578.9" y1="57.3" x2="572.9" y2="57.3"/>
      <text class="cls-2" transform="translate(556 60.5)"><tspan x="0" y="0">2.4</tspan></text>
    </g>
    <text class="cls-9" transform="translate(547.9 18)"><tspan x="0" y="0">PETAL WIDTH</tspan></text>
    <g>
      <line class="cls-17" x1="400.9" y1="30.5" x2="394.9" y2="30.5"/>
      <text class="cls-2" transform="translate(378 33.7)"><tspan x="0" y="0">7.0</tspan></text>
    </g>
    <g>
      <line class="cls-17" x1="44.8" y1="30.3" x2="38.8" y2="30.3"/>
      <text class="cls-2" transform="translate(21.9 33.5)"><tspan x="0" y="0">8.0</tspan></text>
    </g>
    <g>
      <line class="cls-17" x1="578.7" y1="31.2" x2="572.7" y2="31.2"/>
      <text class="cls-2" transform="translate(555.8 34.4)"><tspan x="0" y="0">2.6</tspan></text>
    </g>
  </g>
  <g id="neg_corr_arrow" class="cls-19">
    <g>
      <line class="cls-15" x1="64.2" y1="126.3" x2="194.5" y2="310.3"/>
      <polygon class="cls-13" points="60 141.3 62.9 141.7 64.8 127.2 79.1 130.2 79.7 127.3 62.3 123.6 60 141.3"/>
      <polygon class="cls-13" points="179 309.3 179.6 306.4 193.9 309.3 195.8 294.9 198.7 295.3 196.4 312.9 179 309.3"/>
    </g>
    <g>
      <line class="cls-15" x1="69.1" y1="313.6" x2="189.6" y2="122.9"/>
      <polygon class="cls-13" points="84.6 311.8 83.8 308.9 69.7 312.6 67 298.3 64.1 298.8 67.4 316.3 84.6 311.8"/>
      <polygon class="cls-13" points="194.6 137.7 191.7 138.2 189 123.9 174.9 127.6 174.1 124.8 191.3 120.2 194.6 137.7"/>
    </g>
  </g>
  <g id="pos_corr" class="cls-19">
    <g>
      <line class="cls-15" x1="424.6" y1="243.5" x2="559.5" y2="231.6"/>
      <polygon class="cls-13" points="435.5 254.7 437.3 252.3 425.8 243.4 435.5 232.5 433.3 230.6 421.4 243.8 435.5 254.7"/>
      <polygon class="cls-13" points="550.8 244.5 548.6 242.5 558.4 231.7 546.9 222.7 548.7 220.4 562.7 231.3 550.8 244.5"/>
    </g>
    <g>
      <line class="cls-15" x1="421" y1="203.6" x2="555.9" y2="191.7"/>
      <polygon class="cls-13" points="431.9 214.8 433.7 212.4 422.2 203.5 432 192.6 429.8 190.7 417.9 203.9 431.9 214.8"/>
      <polygon class="cls-13" points="547.2 204.6 545 202.6 554.8 191.8 543.3 182.8 545.1 180.5 559.1 191.4 547.2 204.6"/>
    </g>
  </g>
</svg>