<?xml version="1.0" encoding="UTF-8"?>
<svg width="900" height="400">
<g transform="translate(0,30)">
<path d="M178,280L356,135.00000000000003L534,335.59322033898303L712,345" style="fill: none; stroke: rgb(100, 143, 255); stroke-width: 1.5; opacity: 0.4;"></path><path d="M178,299.99999999999994L356,210L534,335.59322033898303L712,345" style="fill: none; stroke: rgb(100, 143, 255); stroke-width: 1.5; opacity: 0.4;"></path><path d="M178,320L356,180L534,341.6949152542373L712,345" style="fill: none; stroke: rgb(100, 143, 255); stroke-width: 1.5; opacity: 0.4;"></path><path d="M178,330L356,195L534,329.49152542372883L712,345" style="fill: none; stroke: rgb(100, 143, 255); stroke-width: 1.5; opacity: 0.4;"></path><path d="M178,290L356,120L534,335.59322033898303L712,345" style="fill: none; stroke: rgb(100, 143, 255); stroke-width: 1.5; opacity: 0.4;"></path><path d="M178,249.99999999999997L356,75.00000000000006L534,317.2881355932203L712,315" style="fill: none; stroke: rgb(100, 143, 255); stroke-width: 1.5; opacity: 0.4;"></path><path d="M178,330L356,150.00000000000003L534,335.59322033898303L712,330" style="fill: none; stroke: rgb(100, 143, 255); stroke-width: 1.5; opacity: 0.4;"></path><path d="M178,290L356,150.00000000000003L534,329.49152542372883L712,345" style="fill: none; stroke: rgb(100, 143, 255); stroke-width: 1.5; opacity: 0.4;"></path><path d="M178,349.99999999999994L356,225.00000000000003L534,335.59322033898303L712,345" style="fill: none; stroke: rgb(100, 143, 255); stroke-width: 1.5; opacity: 0.4;"></path><path d="M178,299.99999999999994L356,195L534,329.49152542372883L712,360" style="fill: none; stroke: rgb(100, 143, 255); stroke-width: 1.5; opacity: 0.4;"></path><path d="M178,249.99999999999997L356,105.00000000000003L534,329.49152542372883L712,345" style="fill: none; stroke: rgb(100, 143, 255); stroke-width: 1.5; opacity: 0.4;"></path><path d="M178,310L356,150.00000000000003L534,323.3898305084746L712,345" style="fill: none; stroke: rgb(100, 143, 255); stroke-width: 1.5; opacity: 0.4;"></path><path d="M178,310L356,210L534,335.59322033898303L712,360" style="fill: none; stroke: rgb(100, 143, 255); stroke-width: 1.5; opacity: 0.4;"></path><path d="M178,360L356,210L534,353.89830508474574L712,360" style="fill: none; stroke: rgb(100, 143, 255); stroke-width: 1.5; opacity: 0.4;"></path><path d="M178,210L356,60L534,347.79661016949154L712,345" style="fill: none; stroke: rgb(100, 143, 255); stroke-width: 1.5; opacity: 0.4;"></path><path d="M178,219.99999999999997L356,0L534,329.49152542372883L712,315" style="fill: none; stroke: rgb(100, 143, 255); stroke-width: 1.5; opacity: 0.4;"></path><path d="M178,249.99999999999997L356,75.00000000000006L534,341.6949152542373L712,315" style="fill: none; stroke: rgb(100, 143, 255); stroke-width: 1.5; opacity: 0.4;"></path><path d="M178,280L356,135.00000000000003L534,335.59322033898303L712,330" style="fill: none; stroke: rgb(100, 143, 255); stroke-width: 1.5; opacity: 0.4;"></path><path d="M178,219.99999999999997L356,90.00000000000006L534,317.2881355932203L712,330" style="fill: none; stroke: rgb(100, 143, 255); stroke-width: 1.5; opacity: 0.4;"></path><path d="M178,280L356,90.00000000000006L534,329.49152542372883L712,330" style="fill: none; stroke: rgb(100, 143, 255); stroke-width: 1.5; opacity: 0.4;"></path><path d="M178,249.99999999999997L356,150.00000000000003L534,317.2881355932203L712,345" style="fill: none; stroke: rgb(100, 143, 255); stroke-width: 1.5; opacity: 0.4;"></path><path d="M178,280L356,105.00000000000003L534,329.49152542372883L712,315" style="fill: none; stroke: rgb(100, 143, 255); stroke-width: 1.5; opacity: 0.4;"></path><path d="M178,330L356,120L534,360L712,345" style="fill: none; stroke: rgb(100, 143, 255); stroke-width: 1.5; opacity: 0.4;"></path><path d="M178,280L356,165.00000000000006L534,317.2881355932203L712,300" style="fill: none; stroke: rgb(100, 143, 255); stroke-width: 1.5; opacity: 0.4;"></path><path d="M178,310L356,150.00000000000003L534,305.08474576271186L712,345" style="fill: none; stroke: rgb(100, 143, 255); stroke-width: 1.5; opacity: 0.4;"></path><path d="M178,290L356,210L534,323.3898305084746L712,345" style="fill: none; stroke: rgb(100, 143, 255); stroke-width: 1.5; opacity: 0.4;"></path><path d="M178,290L356,150.00000000000003L534,323.3898305084746L712,315" style="fill: none; stroke: rgb(100, 143, 255); stroke-width: 1.5; opacity: 0.4;"></path><path d="M178,270L356,135.00000000000003L534,329.49152542372883L712,345" style="fill: none; stroke: rgb(100, 143, 255); stroke-width: 1.5; opacity: 0.4;"></path><path d="M178,270L356,150.00000000000003L534,335.59322033898303L712,345" style="fill: none; stroke: rgb(100, 143, 255); stroke-width: 1.5; opacity: 0.4;"></path><path d="M178,320L356,180L534,323.3898305084746L712,345" style="fill: none; stroke: rgb(100, 143, 255); stroke-width: 1.5; opacity: 0.4;"></path><path d="M178,310L356,195L534,323.3898305084746L712,345" style="fill: none; stroke: rgb(100, 143, 255); stroke-width: 1.5; opacity: 0.4;"></path><path d="M178,249.99999999999997L356,150.00000000000003L534,329.49152542372883L712,315" style="fill: none; stroke: rgb(100, 143, 255); stroke-width: 1.5; opacity: 0.4;"></path><path d="M178,270L356,45.00000000000006L534,329.49152542372883L712,360" style="fill: none; stroke: rgb(100, 143, 255); stroke-width: 1.5; opacity: 0.4;"></path><path d="M178,240L356,30L534,335.59322033898303L712,345" style="fill: none; stroke: rgb(100, 143, 255); stroke-width: 1.5; opacity: 0.4;"></path><path d="M178,299.99999999999994L356,195L534,329.49152542372883L712,345" style="fill: none; stroke: rgb(100, 143, 255); stroke-width: 1.5; opacity: 0.4;"></path><path d="M178,290L356,180L534,347.79661016949154L712,345" style="fill: none; stroke: rgb(100, 143, 255); stroke-width: 1.5; opacity: 0.4;"></path><path d="M178,240L356,135.00000000000003L534,341.6949152542373L712,345" style="fill: none; stroke: rgb(100, 143, 255); stroke-width: 1.5; opacity: 0.4;"></path><path d="M178,299.99999999999994L356,120L534,335.59322033898303L712,360" style="fill: none; stroke: rgb(100, 143, 255); stroke-width: 1.5; opacity: 0.4;"></path><path d="M178,349.99999999999994L356,210L534,341.6949152542373L712,345" style="fill: none; stroke: rgb(100, 143, 255); stroke-width: 1.5; opacity: 0.4;"></path><path d="M178,280L356,150.00000000000003L534,329.49152542372883L712,345" style="fill: none; stroke: rgb(100, 143, 255); stroke-width: 1.5; opacity: 0.4;"></path><path d="M178,290L356,135.00000000000003L534,341.6949152542373L712,330" style="fill: none; stroke: rgb(100, 143, 255); stroke-width: 1.5; opacity: 0.4;"></path><path d="M178,340L356,315.00000000000006L534,341.6949152542373L712,330" style="fill: none; stroke: rgb(100, 143, 255); stroke-width: 1.5; opacity: 0.4;"></path><path d="M178,349.99999999999994L356,180L534,341.6949152542373L712,345" style="fill: none; stroke: rgb(100, 143, 255); stroke-width: 1.5; opacity: 0.4;"></path><path d="M178,290L356,135.00000000000003L534,323.3898305084746L712,285" style="fill: none; stroke: rgb(100, 143, 255); stroke-width: 1.5; opacity: 0.4;"></path><path d="M178,280L356,90.00000000000006L534,305.08474576271186L712,315" style="fill: none; stroke: rgb(100, 143, 255); stroke-width: 1.5; opacity: 0.4;"></path><path d="M178,310L356,210L534,335.59322033898303L712,330" style="fill: none; stroke: rgb(100, 143, 255); stroke-width: 1.5; opacity: 0.4;"></path><path d="M178,280L356,90.00000000000006L534,323.3898305084746L712,345" style="fill: none; stroke: rgb(100, 143, 255); stroke-width: 1.5; opacity: 0.4;"></path><path d="M178,330L356,180L534,335.59322033898303L712,345" style="fill: none; stroke: rgb(100, 143, 255); stroke-width: 1.5; opacity: 0.4;"></path><path d="M178,260L356,105.00000000000003L534,329.49152542372883L712,345" style="fill: none; stroke: rgb(100, 143, 255); stroke-width: 1.5; opacity: 0.4;"></path><path d="M178,290L356,165.00000000000006L534,335.59322033898303L712,345" style="fill: none; stroke: rgb(100, 143, 255); stroke-width: 1.5; opacity: 0.4;"></path><path d="M178,90.00000000000006L356,180L534,134.23728813559322L712,165" style="fill: none; stroke: rgb(255, 176, 0); stroke-width: 1.5; opacity: 0.4;"></path><path d="M178,150L356,180L534,146.4406779661017L712,150" style="fill: none; stroke: rgb(255, 176, 0); stroke-width: 1.5; opacity: 0.4;"></path><path d="M178,100L356,195L534,122.03389830508473L712,150" style="fill: none; stroke: rgb(255, 176, 0); stroke-width: 1.5; opacity: 0.4;"></path><path d="M178,240L356,315.00000000000006L534,176.9491525423729L712,180" style="fill: none; stroke: rgb(255, 176, 0); stroke-width: 1.5; opacity: 0.4;"></path><path d="M178,140.00000000000003L356,240.00000000000006L534,140.33898305084747L712,150" style="fill: none; stroke: rgb(255, 176, 0); stroke-width: 1.5; opacity: 0.4;"></path><path d="M178,219.99999999999997L356,240.00000000000006L534,146.4406779661017L712,180" style="fill: none; stroke: rgb(255, 176, 0); stroke-width: 1.5; opacity: 0.4;"></path><path d="M178,160.00000000000003L356,165.00000000000006L534,134.23728813559322L712,135" style="fill: none; stroke: rgb(255, 176, 0); stroke-width: 1.5; opacity: 0.4;"></path><path d="M178,299.99999999999994L356,300L534,219.66101694915255L712,225" style="fill: none; stroke: rgb(255, 176, 0); stroke-width: 1.5; opacity: 0.4;"></path><path d="M178,130.00000000000006L356,225.00000000000003L534,140.33898305084747L712,180" style="fill: none; stroke: rgb(255, 176, 0); stroke-width: 1.5; opacity: 0.4;"></path><path d="M178,270L356,255L534,183.05084745762713L712,165" style="fill: none; stroke: rgb(255, 176, 0); stroke-width: 1.5; opacity: 0.4;"></path><path d="M178,290L356,360L534,207.45762711864407L712,225" style="fill: none; stroke: rgb(255, 176, 0); stroke-width: 1.5; opacity: 0.4;"></path><path d="M178,199.99999999999997L356,210L534,164.74576271186442L712,150" style="fill: none; stroke: rgb(255, 176, 0); stroke-width: 1.5; opacity: 0.4;"></path><path d="M178,190L356,330L534,176.9491525423729L712,225" style="fill: none; stroke: rgb(255, 176, 0); stroke-width: 1.5; opacity: 0.4;"></path><path d="M178,180.00000000000003L356,225.00000000000003L534,134.23728813559322L712,165" style="fill: none; stroke: rgb(255, 176, 0); stroke-width: 1.5; opacity: 0.4;"></path><path d="M178,230.00000000000003L356,225.00000000000003L534,201.35593220338984L712,180" style="fill: none; stroke: rgb(255, 176, 0); stroke-width: 1.5; opacity: 0.4;"></path><path d="M178,120L356,195L534,152.54237288135593L712,165" style="fill: none; stroke: rgb(255, 176, 0); stroke-width: 1.5; opacity: 0.4;"></path><path d="M178,230.00000000000003L356,210L534,146.4406779661017L712,150" style="fill: none; stroke: rgb(255, 176, 0); stroke-width: 1.5; opacity: 0.4;"></path><path d="M178,210L356,255L534,170.84745762711867L712,225" style="fill: none; stroke: rgb(255, 176, 0); stroke-width: 1.5; opacity: 0.4;"></path><path d="M178,170L356,330L534,146.4406779661017L712,150" style="fill: none; stroke: rgb(255, 176, 0); stroke-width: 1.5; opacity: 0.4;"></path><path d="M178,230.00000000000003L356,285L534,183.05084745762713L712,210" style="fill: none; stroke: rgb(255, 176, 0); stroke-width: 1.5; opacity: 0.4;"></path><path d="M178,199.99999999999997L356,180L534,128.135593220339L712,105" style="fill: none; stroke: rgb(255, 176, 0); stroke-width: 1.5; opacity: 0.4;"></path><path d="M178,180.00000000000003L356,240.00000000000006L534,176.9491525423729L712,180" style="fill: none; stroke: rgb(255, 176, 0); stroke-width: 1.5; opacity: 0.4;"></path><path d="M178,160.00000000000003L356,285L534,122.03389830508473L712,150" style="fill: none; stroke: rgb(255, 176, 0); stroke-width: 1.5; opacity: 0.4;"></path><path d="M178,180.00000000000003L356,240.00000000000006L534,134.23728813559322L712,195" style="fill: none; stroke: rgb(255, 176, 0); stroke-width: 1.5; opacity: 0.4;"></path><path d="M178,150L356,225.00000000000003L534,158.6440677966102L712,180" style="fill: none; stroke: rgb(255, 176, 0); stroke-width: 1.5; opacity: 0.4;"></path><path d="M178,130.00000000000006L356,210L534,152.54237288135593L712,165" style="fill: none; stroke: rgb(255, 176, 0); stroke-width: 1.5; opacity: 0.4;"></path><path d="M178,110.00000000000006L356,240.00000000000006L534,128.135593220339L712,165" style="fill: none; stroke: rgb(255, 176, 0); stroke-width: 1.5; opacity: 0.4;"></path><path d="M178,120L356,210L534,115.93220338983053L712,120" style="fill: none; stroke: rgb(255, 176, 0); stroke-width: 1.5; opacity: 0.4;"></path><path d="M178,190L356,225.00000000000003L534,146.4406779661017L712,150" style="fill: none; stroke: rgb(255, 176, 0); stroke-width: 1.5; opacity: 0.4;"></path><path d="M178,219.99999999999997L356,270L534,207.45762711864407L712,225" style="fill: none; stroke: rgb(255, 176, 0); stroke-width: 1.5; opacity: 0.4;"></path><path d="M178,240L356,300L534,189.15254237288138L712,210" style="fill: none; stroke: rgb(255, 176, 0); stroke-width: 1.5; opacity: 0.4;"></path><path d="M178,240L356,300L534,195.25423728813558L712,225" style="fill: none; stroke: rgb(255, 176, 0); stroke-width: 1.5; opacity: 0.4;"></path><path d="M178,210L356,255L534,183.05084745762713L712,195" style="fill: none; stroke: rgb(255, 176, 0); stroke-width: 1.5; opacity: 0.4;"></path><path d="M178,190L356,255L534,109.8305084745763L712,135" style="fill: none; stroke: rgb(255, 176, 0); stroke-width: 1.5; opacity: 0.4;"></path><path d="M178,249.99999999999997L356,210L534,146.4406779661017L712,150" style="fill: none; stroke: rgb(255, 176, 0); stroke-width: 1.5; opacity: 0.4;"></path><path d="M178,190L356,150.00000000000003L534,146.4406779661017L712,135" style="fill: none; stroke: rgb(255, 176, 0); stroke-width: 1.5; opacity: 0.4;"></path><path d="M178,120L356,195L534,134.23728813559322L712,150" style="fill: none; stroke: rgb(255, 176, 0); stroke-width: 1.5; opacity: 0.4;"></path><path d="M178,160.00000000000003L356,315.00000000000006L534,152.54237288135593L712,180" style="fill: none; stroke: rgb(255, 176, 0); stroke-width: 1.5; opacity: 0.4;"></path><path d="M178,230.00000000000003L356,210L534,170.84745762711867L712,180" style="fill: none; stroke: rgb(255, 176, 0); stroke-width: 1.5; opacity: 0.4;"></path><path d="M178,240L356,285L534,176.9491525423729L712,180" style="fill: none; stroke: rgb(255, 176, 0); stroke-width: 1.5; opacity: 0.4;"></path><path d="M178,240L356,270L534,152.54237288135593L712,195" style="fill: none; stroke: rgb(255, 176, 0); stroke-width: 1.5; opacity: 0.4;"></path><path d="M178,180.00000000000003L356,210L534,140.33898305084747L712,165" style="fill: none; stroke: rgb(255, 176, 0); stroke-width: 1.5; opacity: 0.4;"></path><path d="M178,210L356,270L534,176.9491525423729L712,195" style="fill: none; stroke: rgb(255, 176, 0); stroke-width: 1.5; opacity: 0.4;"></path><path d="M178,290L356,315.00000000000006L534,219.66101694915255L712,225" style="fill: none; stroke: rgb(255, 176, 0); stroke-width: 1.5; opacity: 0.4;"></path><path d="M178,230.00000000000003L356,255L534,164.74576271186442L712,180" style="fill: none; stroke: rgb(255, 176, 0); stroke-width: 1.5; opacity: 0.4;"></path><path d="M178,219.99999999999997L356,210L534,164.74576271186442L712,195" style="fill: none; stroke: rgb(255, 176, 0); stroke-width: 1.5; opacity: 0.4;"></path><path d="M178,219.99999999999997L356,225.00000000000003L534,164.74576271186442L712,180" style="fill: none; stroke: rgb(255, 176, 0); stroke-width: 1.5; opacity: 0.4;"></path><path d="M178,170L356,225.00000000000003L534,158.6440677966102L712,180" style="fill: none; stroke: rgb(255, 176, 0); stroke-width: 1.5; opacity: 0.4;"></path><path d="M178,280L356,285L534,237.96610169491527L712,210" style="fill: none; stroke: rgb(255, 176, 0); stroke-width: 1.5; opacity: 0.4;"></path><path d="M178,219.99999999999997L356,240.00000000000006L534,170.84745762711867L712,180" style="fill: none; stroke: rgb(255, 176, 0); stroke-width: 1.5; opacity: 0.4;"></path><path d="M178,160.00000000000003L356,165.00000000000006L534,54.91525423728814L712,0" style="fill: none; stroke: rgb(220, 38, 127); stroke-width: 1.5; opacity: 0.4;"></path><path d="M178,210L356,255L534,109.8305084745763L712,90" style="fill: none; stroke: rgb(220, 38, 127); stroke-width: 1.5; opacity: 0.4;"></path><path d="M178,80.00000000000006L356,210L534,61.016949152542395L712,60" style="fill: none; stroke: rgb(220, 38, 127); stroke-width: 1.5; opacity: 0.4;"></path><path d="M178,160.00000000000003L356,225.00000000000003L534,79.32203389830511L712,105" style="fill: none; stroke: rgb(220, 38, 127); stroke-width: 1.5; opacity: 0.4;"></path><path d="M178,140.00000000000003L356,210L534,67.11864406779665L712,44.99999999999994" style="fill: none; stroke: rgb(220, 38, 127); stroke-width: 1.5; opacity: 0.4;"></path><path d="M178,30.000000000000057L356,210L534,18.30508474576277L712,60" style="fill: none; stroke: rgb(220, 38, 127); stroke-width: 1.5; opacity: 0.4;"></path><path d="M178,299.99999999999994L356,285L534,146.4406779661017L712,120" style="fill: none; stroke: rgb(220, 38, 127); stroke-width: 1.5; opacity: 0.4;"></path><path d="M178,60L356,225.00000000000003L534,36.610169491525426L712,105" style="fill: none; stroke: rgb(220, 38, 127); stroke-width: 1.5; opacity: 0.4;"></path><path d="M178,120L356,285L534,67.11864406779665L712,105" style="fill: none; stroke: rgb(220, 38, 127); stroke-width: 1.5; opacity: 0.4;"></path><path d="M178,70L356,120L534,48.81355932203394L712,0" style="fill: none; stroke: rgb(220, 38, 127); stroke-width: 1.5; opacity: 0.4;"></path><path d="M178,140.00000000000003L356,180L534,109.8305084745763L712,75" style="fill: none; stroke: rgb(220, 38, 127); stroke-width: 1.5; opacity: 0.4;"></path><path d="M178,150L356,255L534,97.62711864406782L712,90" style="fill: none; stroke: rgb(220, 38, 127); stroke-width: 1.5; opacity: 0.4;"></path><path d="M178,110.00000000000006L356,210L534,85.42372881355931L712,60" style="fill: none; stroke: rgb(220, 38, 127); stroke-width: 1.5; opacity: 0.4;"></path><path d="M178,219.99999999999997L356,285L534,115.93220338983053L712,75" style="fill: none; stroke: rgb(220, 38, 127); stroke-width: 1.5; opacity: 0.4;"></path><path d="M178,210L356,240.00000000000006L534,109.8305084745763L712,15" style="fill: none; stroke: rgb(220, 38, 127); stroke-width: 1.5; opacity: 0.4;"></path><path d="M178,150L356,180L534,97.62711864406782L712,30" style="fill: none; stroke: rgb(220, 38, 127); stroke-width: 1.5; opacity: 0.4;"></path><path d="M178,140.00000000000003L356,210L534,85.42372881355931L712,105" style="fill: none; stroke: rgb(220, 38, 127); stroke-width: 1.5; opacity: 0.4;"></path><path d="M178,20L356,90.00000000000006L534,12.203389830508456L712,44.99999999999994" style="fill: none; stroke: rgb(220, 38, 127); stroke-width: 1.5; opacity: 0.4;"></path><path d="M178,20L356,270L534,0L712,30" style="fill: none; stroke: rgb(220, 38, 127); stroke-width: 1.5; opacity: 0.4;"></path><path d="M178,190L356,330L534,115.93220338983053L712,150" style="fill: none; stroke: rgb(220, 38, 127); stroke-width: 1.5; opacity: 0.4;"></path><path d="M178,100L356,180L534,73.22033898305085L712,30" style="fill: none; stroke: rgb(220, 38, 127); stroke-width: 1.5; opacity: 0.4;"></path><path d="M178,230.00000000000003L356,240.00000000000006L534,122.03389830508473L712,75" style="fill: none; stroke: rgb(220, 38, 127); stroke-width: 1.5; opacity: 0.4;"></path><path d="M178,20L356,240.00000000000006L534,12.203389830508456L712,75" style="fill: none; stroke: rgb(220, 38, 127); stroke-width: 1.5; opacity: 0.4;"></path><path d="M178,160.00000000000003L356,255L534,122.03389830508473L712,105" style="fill: none; stroke: rgb(220, 38, 127); stroke-width: 1.5; opacity: 0.4;"></path><path d="M178,120L356,165.00000000000006L534,73.22033898305085L712,60" style="fill: none; stroke: rgb(220, 38, 127); stroke-width: 1.5; opacity: 0.4;"></path><path d="M178,70L356,180L534,54.91525423728814L712,105" style="fill: none; stroke: rgb(220, 38, 127); stroke-width: 1.5; opacity: 0.4;"></path><path d="M178,170L356,240.00000000000006L534,128.135593220339L712,105" style="fill: none; stroke: rgb(220, 38, 127); stroke-width: 1.5; opacity: 0.4;"></path><path d="M178,180.00000000000003L356,210L534,122.03389830508473L712,105" style="fill: none; stroke: rgb(220, 38, 127); stroke-width: 1.5; opacity: 0.4;"></path><path d="M178,150L356,240.00000000000006L534,79.32203389830511L712,60" style="fill: none; stroke: rgb(220, 38, 127); stroke-width: 1.5; opacity: 0.4;"></path><path d="M178,70L356,210L534,67.11864406779665L712,135" style="fill: none; stroke: rgb(220, 38, 127); stroke-width: 1.5; opacity: 0.4;"></path><path d="M178,50L356,240.00000000000006L534,48.81355932203394L712,90" style="fill: none; stroke: rgb(220, 38, 127); stroke-width: 1.5; opacity: 0.4;"></path><path d="M178,0L356,90.00000000000006L534,30.50847457627117L712,75" style="fill: none; stroke: rgb(220, 38, 127); stroke-width: 1.5; opacity: 0.4;"></path><path d="M178,150L356,240.00000000000006L534,79.32203389830511L712,44.99999999999994" style="fill: none; stroke: rgb(220, 38, 127); stroke-width: 1.5; opacity: 0.4;"></path><path d="M178,160.00000000000003L356,240.00000000000006L534,109.8305084745763L712,150" style="fill: none; stroke: rgb(220, 38, 127); stroke-width: 1.5; opacity: 0.4;"></path><path d="M178,180.00000000000003L356,270L534,79.32203389830511L712,165" style="fill: none; stroke: rgb(220, 38, 127); stroke-width: 1.5; opacity: 0.4;"></path><path d="M178,20L356,210L534,48.81355932203394L712,30" style="fill: none; stroke: rgb(220, 38, 127); stroke-width: 1.5; opacity: 0.4;"></path><path d="M178,160.00000000000003L356,150.00000000000003L534,79.32203389830511L712,15" style="fill: none; stroke: rgb(220, 38, 127); stroke-width: 1.5; opacity: 0.4;"></path><path d="M178,150L356,195L534,85.42372881355931L712,105" style="fill: none; stroke: rgb(220, 38, 127); stroke-width: 1.5; opacity: 0.4;"></path><path d="M178,190L356,210L534,128.135593220339L712,105" style="fill: none; stroke: rgb(220, 38, 127); stroke-width: 1.5; opacity: 0.4;"></path><path d="M178,100L356,195L534,91.52542372881356L712,60" style="fill: none; stroke: rgb(220, 38, 127); stroke-width: 1.5; opacity: 0.4;"></path><path d="M178,120L356,195L534,79.32203389830511L712,15" style="fill: none; stroke: rgb(220, 38, 127); stroke-width: 1.5; opacity: 0.4;"></path><path d="M178,100L356,195L534,109.8305084745763L712,30" style="fill: none; stroke: rgb(220, 38, 127); stroke-width: 1.5; opacity: 0.4;"></path><path d="M178,210L356,255L534,109.8305084745763L712,90" style="fill: none; stroke: rgb(220, 38, 127); stroke-width: 1.5; opacity: 0.4;"></path><path d="M178,110.00000000000006L356,180L534,61.016949152542395L712,30" style="fill: none; stroke: rgb(220, 38, 127); stroke-width: 1.5; opacity: 0.4;"></path><path d="M178,120L356,165.00000000000006L534,73.22033898305085L712,0" style="fill: none; stroke: rgb(220, 38, 127); stroke-width: 1.5; opacity: 0.4;"></path><path d="M178,120L356,210L534,103.72881355932202L712,30" style="fill: none; stroke: rgb(220, 38, 127); stroke-width: 1.5; opacity: 0.4;"></path><path d="M178,160.00000000000003L356,285L534,115.93220338983053L712,90" style="fill: none; stroke: rgb(220, 38, 127); stroke-width: 1.5; opacity: 0.4;"></path><path d="M178,140.00000000000003L356,210L534,103.72881355932202L712,75" style="fill: none; stroke: rgb(220, 38, 127); stroke-width: 1.5; opacity: 0.4;"></path><path d="M178,170L356,150.00000000000003L534,91.52542372881356L712,30" style="fill: none; stroke: rgb(220, 38, 127); stroke-width: 1.5; opacity: 0.4;"></path><path d="M178,199.99999999999997L356,210L534,109.8305084745763L712,105" style="fill: none; stroke: rgb(220, 38, 127); stroke-width: 1.5; opacity: 0.4;"></path><rect class="Sepal_Length" fill="#FFE633" fill-opacity="0.3" height="360" width="20" transform="translate(168)"></rect><rect class="Sepal_Width" fill="#FFE633" fill-opacity="0.3" height="360" width="20" transform="translate(346)"></rect><rect class="Petal_Length" fill="#FFE633" fill-opacity="0.3" height="360" width="20" transform="translate(524)"></rect><rect class="Petal_Width" fill="#FFE633" fill-opacity="0.3" height="360" width="20" transform="translate(702)"></rect><g transform="translate(178)" fill="none" font-size="10" font-family="sans-serif" text-anchor="end"><path class="domain" stroke="#000" d="M-6,360.5H0.5V0.5H-6"></path><g class="tick" opacity="1" transform="translate(0,340.5)"><line stroke="#000" x2="-6"></line><text fill="#000" x="-9" dy="0.32em">4.5</text></g><g class="tick" opacity="1" transform="translate(0,290.5)"><line stroke="#000" x2="-6"></line><text fill="#000" x="-9" dy="0.32em">5.0</text></g><g class="tick" opacity="1" transform="translate(0,240.5)"><line stroke="#000" x2="-6"></line><text fill="#000" x="-9" dy="0.32em">5.5</text></g><g class="tick" opacity="1" transform="translate(0,190.5)"><line stroke="#000" x2="-6"></line><text fill="#000" x="-9" dy="0.32em">6.0</text></g><g class="tick" opacity="1" transform="translate(0,140.50000000000003)"><line stroke="#000" x2="-6"></line><text fill="#000" x="-9" dy="0.32em">6.5</text></g><g class="tick" opacity="1" transform="translate(0,90.50000000000006)"><line stroke="#000" x2="-6"></line><text fill="#000" x="-9" dy="0.32em">7.0</text></g><g class="tick" opacity="1" transform="translate(0,40.5)"><line stroke="#000" x2="-6"></line><text fill="#000" x="-9" dy="0.32em">7.5</text></g><text y="-9" style="text-anchor: middle; fill: black;">Sepal_Length</text></g><g transform="translate(356)" fill="none" font-size="10" font-family="sans-serif" text-anchor="end"><path class="domain" stroke="#000" d="M-6,360.5H0.5V0.5H-6"></path><g class="tick" opacity="1" transform="translate(0,360.5)"><line stroke="#000" x2="-6"></line><text fill="#000" x="-9" dy="0.32em">2.0</text></g><g class="tick" opacity="1" transform="translate(0,330.5)"><line stroke="#000" x2="-6"></line><text fill="#000" x="-9" dy="0.32em">2.2</text></g><g class="tick" opacity="1" transform="translate(0,300.5)"><line stroke="#000" x2="-6"></line><text fill="#000" x="-9" dy="0.32em">2.4</text></g><g class="tick" opacity="1" transform="translate(0,270.5)"><line stroke="#000" x2="-6"></line><text fill="#000" x="-9" dy="0.32em">2.6</text></g><g class="tick" opacity="1" transform="translate(0,240.50000000000006)"><line stroke="#000" x2="-6"></line><text fill="#000" x="-9" dy="0.32em">2.8</text></g><g class="tick" opacity="1" transform="translate(0,210.5)"><line stroke="#000" x2="-6"></line><text fill="#000" x="-9" dy="0.32em">3.0</text></g><g class="tick" opacity="1" transform="translate(0,180.5)"><line stroke="#000" x2="-6"></line><text fill="#000" x="-9" dy="0.32em">3.2</text></g><g class="tick" opacity="1" transform="translate(0,150.50000000000003)"><line stroke="#000" x2="-6"></line><text fill="#000" x="-9" dy="0.32em">3.4</text></g><g class="tick" opacity="1" transform="translate(0,120.5)"><line stroke="#000" x2="-6"></line><text fill="#000" x="-9" dy="0.32em">3.6</text></g><g class="tick" opacity="1" transform="translate(0,90.50000000000006)"><line stroke="#000" x2="-6"></line><text fill="#000" x="-9" dy="0.32em">3.8</text></g><g class="tick" opacity="1" transform="translate(0,60.5)"><line stroke="#000" x2="-6"></line><text fill="#000" x="-9" dy="0.32em">4.0</text></g><g class="tick" opacity="1" transform="translate(0,30.5)"><line stroke="#000" x2="-6"></line><text fill="#000" x="-9" dy="0.32em">4.2</text></g><g class="tick" opacity="1" transform="translate(0,0.5)"><line stroke="#000" x2="-6"></line><text fill="#000" x="-9" dy="0.32em">4.4</text></g><text y="-9" style="text-anchor: middle; fill: black;">Sepal_Width</text></g><g transform="translate(534)" fill="none" font-size="10" font-family="sans-serif" text-anchor="end"><path class="domain" stroke="#000" d="M-6,360.5H0.5V0.5H-6"></path><g class="tick" opacity="1" transform="translate(0,360.5)"><line stroke="#000" x2="-6"></line><text fill="#000" x="-9" dy="0.32em">1.0</text></g><g class="tick" opacity="1" transform="translate(0,329.99152542372883)"><line stroke="#000" x2="-6"></line><text fill="#000" x="-9" dy="0.32em">1.5</text></g><g class="tick" opacity="1" transform="translate(0,299.48305084745766)"><line stroke="#000" x2="-6"></line><text fill="#000" x="-9" dy="0.32em">2.0</text></g><g class="tick" opacity="1" transform="translate(0,268.97457627118644)"><line stroke="#000" x2="-6"></line><text fill="#000" x="-9" dy="0.32em">2.5</text></g><g class="tick" opacity="1" transform="translate(0,238.46610169491527)"><line stroke="#000" x2="-6"></line><text fill="#000" x="-9" dy="0.32em">3.0</text></g><g class="tick" opacity="1" transform="translate(0,207.95762711864407)"><line stroke="#000" x2="-6"></line><text fill="#000" x="-9" dy="0.32em">3.5</text></g><g class="tick" opacity="1" transform="translate(0,177.4491525423729)"><line stroke="#000" x2="-6"></line><text fill="#000" x="-9" dy="0.32em">4.0</text></g><g class="tick" opacity="1" transform="translate(0,146.9406779661017)"><line stroke="#000" x2="-6"></line><text fill="#000" x="-9" dy="0.32em">4.5</text></g><g class="tick" opacity="1" transform="translate(0,116.43220338983053)"><line stroke="#000" x2="-6"></line><text fill="#000" x="-9" dy="0.32em">5.0</text></g><g class="tick" opacity="1" transform="translate(0,85.92372881355931)"><line stroke="#000" x2="-6"></line><text fill="#000" x="-9" dy="0.32em">5.5</text></g><g class="tick" opacity="1" transform="translate(0,55.41525423728814)"><line stroke="#000" x2="-6"></line><text fill="#000" x="-9" dy="0.32em">6.0</text></g><g class="tick" opacity="1" transform="translate(0,24.90677966101697)"><line stroke="#000" x2="-6"></line><text fill="#000" x="-9" dy="0.32em">6.5</text></g><text y="-9" style="text-anchor: middle; fill: black;">Petal_Length</text></g><g transform="translate(712)" fill="none" font-size="10" font-family="sans-serif" text-anchor="end"><path class="domain" stroke="#000" d="M-6,360.5H0.5V0.5H-6"></path><g class="tick" opacity="1" transform="translate(0,345.5)"><line stroke="#000" x2="-6"></line><text fill="#000" x="-9" dy="0.32em">0.2</text></g><g class="tick" opacity="1" transform="translate(0,315.5)"><line stroke="#000" x2="-6"></line><text fill="#000" x="-9" dy="0.32em">0.4</text></g><g class="tick" opacity="1" transform="translate(0,285.5)"><line stroke="#000" x2="-6"></line><text fill="#000" x="-9" dy="0.32em">0.6</text></g><g class="tick" opacity="1" transform="translate(0,255.5)"><line stroke="#000" x2="-6"></line><text fill="#000" x="-9" dy="0.32em">0.8</text></g><g class="tick" opacity="1" transform="translate(0,225.5)"><line stroke="#000" x2="-6"></line><text fill="#000" x="-9" dy="0.32em">1.0</text></g><g class="tick" opacity="1" transform="translate(0,195.5)"><line stroke="#000" x2="-6"></line><text fill="#000" x="-9" dy="0.32em">1.2</text></g><g class="tick" opacity="1" transform="translate(0,165.5)"><line stroke="#000" x2="-6"></line><text fill="#000" x="-9" dy="0.32em">1.4</text></g><g class="tick" opacity="1" transform="translate(0,135.5)"><line stroke="#000" x2="-6"></line><text fill="#000" x="-9" dy="0.32em">1.6</text></g><g class="tick" opacity="1" transform="translate(0,105.5)"><line stroke="#000" x2="-6"></line><text fill="#000" x="-9" dy="0.32em">1.8</text></g><g class="tick" opacity="1" transform="translate(0,75.5)"><line stroke="#000" x2="-6"></line><text fill="#000" x="-9" dy="0.32em">2.0</text></g><g class="tick" opacity="1" transform="translate(0,45.49999999999994)"><line stroke="#000" x2="-6"></line><text fill="#000" x="-9" dy="0.32em">2.2</text></g><g class="tick" opacity="1" transform="translate(0,15.5)"><line stroke="#000" x2="-6"></line><text fill="#000" x="-9" dy="0.32em">2.4</text></g><text y="-9" style="text-anchor: middle; fill: black;">Petal_Width</text>
</g>
</g>
</svg>